<?xml version="1.0" encoding="UTF-8"?>
<!DOCTYPE svg PUBLIC "-//W3C//DTD SVG 1.1//EN" "http://www.w3.org/Graphics/SVG/1.1/DTD/svg11.dtd">
<!-- Creator: CorelDRAW X7 -->
<svg xmlns="http://www.w3.org/2000/svg" xml:space="preserve" width="413px" height="480px" version="1.1" style="shape-rendering:geometricPrecision; text-rendering:geometricPrecision; image-rendering:optimizeQuality; fill-rule:evenodd; clip-rule:evenodd"
viewBox="0 0 413 480"
 xmlns:xlink="http://www.w3.org/1999/xlink">
 <defs>
  <style type="text/css">
   <![CDATA[
    .fil2 {fill:#FEFEFE}
    .fil0 {fill:#FDD100}
    .fil1 {fill:#2F318B}
   ]]>
  </style>
 </defs>
 <g id="Layer_x0020_1">
  <metadata id="CorelCorpID_0Corel-Layer"/>
  <g id="_2320935294496">
   <path class="fil0" d="M403 229l10 1 -6 34 -11 -2c-2,8 -5,16 -9,24l11 5 -16 31 -11 -6c-5,7 -10,14 -16,21l10 8 -25 25 -8 -10c-7,5 -14,10 -22,15l7 11 -31 17 -5 -13c-8,3 -16,6 -25,8l4 14 -35 6 -1 -14c-5,0 -9,0 -13,0l0 76 -9 0c0,-8 -12,-33 -24,-49 -12,-16 -32,-27 -43,-31 -28,-10 -53,-27 -74,-48 -38,-37 -61,-89 -61,-146l0 0 0 0c0,-56 23,-108 61,-145 37,-38 89,-61 145,-61l0 0 0 0c57,0 109,23 146,61 38,37 61,89 61,145l0 0 0 0c0,5 0,9 -1,13l-8 0c0,4 -1,7 -1,10zm-201 227l0 -68c-76,-3 -140,-56 -159,-129 -11,-3 -20,-7 -27,-12 8,37 27,71 53,97 19,18 42,34 67,43 8,4 17,8 25,13 22,13 34,32 41,56zm-146 -193c20,64 78,111 146,113l0 -54c0,-4 1,-7 2,-9 3,-12 14,-20 26,-26 13,-5 29,-7 42,-7 3,0 6,0 9,0 -3,-3 -7,-5 -13,-5l-11 0 -5 0 1 -5c1,-2 1,-5 0,-8l0 0c-1,-2 -5,-5 -13,-5l-38 0 0 -38 -189 0c17,26 51,41 79,46 -15,1 -22,1 -36,-2zm155 -25c1,-2 2,-3 4,-4 7,-6 17,-11 26,-15l-30 0 0 19zm57 -19c-14,2 -36,10 -49,20 -3,3 -5,5 -7,7 0,1 -1,2 -1,3l0 0 27 0c12,0 18,4 20,9l0 0c2,3 2,6 2,8l6 0c11,0 19,7 22,13 1,1 2,2 2,3 1,1 1,2 2,3l0 0 2 8 -8 -2c-4,-2 -10,-3 -16,-3 -12,0 -25,3 -36,7 -11,5 -19,11 -22,20 -1,2 -1,4 -1,7l0 52c44,-2 84,-20 114,-49 27,-28 45,-65 48,-106l-105 0zm-7 -171c17,21 30,45 38,70 10,-3 20,-6 30,-10 7,-3 14,-6 21,-10 5,-2 9,-4 13,-6 -6,-8 -12,-16 -19,-23 -14,-14 -30,-25 -47,-34 -3,1 -5,2 -8,3 -4,2 -9,4 -13,6 -5,1 -10,3 -15,4zm40 78c5,18 7,36 7,55 0,8 0,17 -1,26l94 0c0,0 0,-1 0,-1l0 0 0 0c0,-39 -12,-76 -33,-107 -5,2 -9,5 -14,7 -7,3 -14,7 -22,10 -10,4 -20,7 -31,10zm-3 81c1,-9 2,-18 2,-26 0,-18 -3,-35 -7,-52 -27,7 -54,10 -82,11l0 67 87 0zm-8 -87c-8,-25 -21,-49 -38,-69 -13,3 -27,4 -41,5l0 75c27,0 54,-4 79,-11zm-129 -70c-17,21 -31,45 -39,71 26,6 53,10 80,10l0 -75c-14,-1 -28,-2 -41,-6zm-41 79c-5,17 -7,34 -7,52 0,8 0,17 1,26l88 0 0 -67c-28,-1 -56,-4 -82,-11zm-14 78c-1,-9 -2,-18 -2,-26 0,-18 3,-37 8,-54 -3,-1 -5,-1 -7,-2 -21,-7 -42,-15 -60,-26 -21,31 -33,68 -33,107l0 0 0 0c0,0 0,1 0,1l94 0zm8 -88c8,-26 21,-50 38,-71 -1,0 -1,0 -2,-1 -12,-3 -23,-7 -34,-13 -17,10 -33,21 -47,35 -7,7 -14,15 -19,23 17,10 37,18 58,25 2,0 4,1 6,2zm12 -90c9,4 18,8 27,10 2,1 4,2 7,2 15,4 31,6 46,6l0 0c23,0 46,-4 67,-12 4,-1 8,-3 12,-4 1,-1 1,-1 2,-1 -25,-12 -52,-18 -81,-18l0 0 0 0c-28,0 -55,6 -80,17z"/>
   <path class="fil1" d="M126 29c9,4 18,8 27,10 2,1 4,2 7,2 15,4 31,6 46,6l0 0c23,0 46,-4 67,-12 4,-1 8,-3 12,-4 1,-1 1,-1 2,-1 -25,-12 -52,-18 -81,-18l0 0 0 0c-28,0 -55,6 -80,17zm116 234c2,0 4,2 4,4 0,3 -2,5 -4,5 -2,0 -4,-2 -4,-5 0,-2 2,-4 4,-4zm-40 103l0 -44c0,-4 1,-7 2,-9 3,-12 14,-20 26,-26 13,-5 29,-7 42,-7 3,0 6,0 9,0 -3,-3 -7,-5 -13,-5l-11 0 -5 0 1 -5c1,-2 1,-5 0,-8l0 0c-1,-2 -5,-5 -13,-5l-38 0 0 -38 -189 0c17,26 51,41 79,46 -10,1 -17,1 -25,0 20,57 73,99 135,101zm0 90l0 -68c-76,-3 -140,-56 -159,-129 -11,-3 -20,-7 -27,-12 8,37 27,71 53,97 19,18 42,34 67,43 8,4 17,8 25,13 22,13 34,32 41,56zm66 -237c-14,2 -36,10 -49,20 -3,3 -5,5 -7,7 0,1 -1,2 -1,3l0 0 27 0c12,0 18,4 20,9l0 0c2,3 2,6 2,8l6 0c11,0 19,7 22,13 1,1 2,2 2,3 1,1 1,2 2,3l0 0 2 8 -8 -2c-4,-2 -10,-3 -16,-3 -12,0 -25,3 -36,7 -11,5 -19,11 -22,20 -1,2 -1,4 -1,7l0 52c44,-2 84,-20 114,-49 27,-28 45,-65 48,-106l-105 0zm-7 -171c17,21 30,45 38,70 10,-3 20,-6 30,-10 7,-3 14,-6 21,-10 5,-2 9,-4 13,-6 -6,-8 -12,-16 -19,-23 -14,-14 -30,-25 -47,-34 -3,1 -5,2 -8,3 -4,2 -9,4 -13,6 -5,1 -10,3 -15,4zm40 78c5,18 7,36 7,55 0,8 0,17 -1,26l94 0c0,0 0,-1 0,-1l0 0 0 0c0,-39 -12,-76 -33,-107 -5,2 -9,5 -14,7 -7,3 -14,7 -22,10 -10,4 -20,7 -31,10zm-3 81c1,-9 2,-18 2,-26 0,-18 -3,-35 -7,-52 -27,7 -54,10 -82,11l0 67 87 0zm-8 -87c-8,-25 -21,-49 -38,-69 -13,3 -27,4 -41,5l0 75c27,0 54,-4 79,-11zm-129 -70c-17,21 -31,45 -39,71 26,6 53,10 80,10l0 -75c-14,-1 -28,-2 -41,-6zm-41 79c-5,17 -7,34 -7,52 0,8 0,17 1,26l88 0 0 -67c-28,-1 -56,-4 -82,-11zm-14 78c-1,-9 -2,-18 -2,-26 0,-18 3,-37 8,-54 -3,-1 -5,-1 -7,-2 -21,-7 -42,-15 -60,-26 -21,31 -33,68 -33,107l0 0 0 0c0,0 0,1 0,1l94 0zm8 -88c8,-26 21,-50 38,-71 -1,0 -1,0 -2,-1 -12,-3 -23,-7 -34,-13 -17,10 -33,21 -47,35 -7,7 -14,15 -19,23 17,10 37,18 58,25 2,0 4,1 6,2z"/>
   <path class="fil2" d="M56 263c20,64 78,111 146,113l0 -10c-62,-2 -115,-44 -135,-101 -3,-1 -7,-1 -11,-2zm186 0c2,0 4,2 4,4 0,3 -2,5 -4,5 -2,0 -4,-2 -4,-5 0,-2 2,-4 4,-4zm-31 -25c1,-2 2,-3 4,-4 7,-6 17,-11 26,-15l-30 0 0 19z"/>
  </g>
 </g>
</svg>
